<?xml version="1.0" encoding="UTF-8" standalone="no"?>
<!-- Created with Inkscape (http://www.inkscape.org/) -->

<svg
   width="51.323288mm"
   height="47.719891mm"
   viewBox="0 0 51.323288 47.719891"
   version="1.1"
   id="svg1"
   xml:space="preserve"
   inkscape:export-filename="logo.svg"
   inkscape:export-xdpi="96"
   inkscape:export-ydpi="96"
   xmlns:inkscape="http://www.inkscape.org/namespaces/inkscape"
   xmlns:sodipodi="http://sodipodi.sourceforge.net/DTD/sodipodi-0.dtd"
   xmlns="http://www.w3.org/2000/svg"
   xmlns:svg="http://www.w3.org/2000/svg"><sodipodi:namedview
     id="namedview1"
     pagecolor="#ffffff"
     bordercolor="#000000"
     borderopacity="0.25"
     inkscape:showpageshadow="2"
     inkscape:pageopacity="0.0"
     inkscape:pagecheckerboard="0"
     inkscape:deskcolor="#d1d1d1"
     inkscape:document-units="mm" /><defs
     id="defs1" /><g
     inkscape:label="Capa 1"
     inkscape:groupmode="layer"
     id="layer1"
     transform="translate(-113.88214,-133.63986)"><path
       style="fill:#000000"
       d="m 126.71752,179.88246 -2.64583,-1.42316 -0.0756,-6.0476 -0.0756,-6.04761 -4.95147,-2.7848 -4.95147,-2.78481 -0.0677,-3.30061 -0.0677,-3.30061 5.09477,-2.67554 5.09477,-2.67553 0.0733,-6.05572 0.0733,-6.05571 2.66229,-1.54545 2.66229,-1.54545 4.86105,2.80222 c 2.67358,1.54122 4.96922,2.80222 5.10142,2.80222 0.13221,0 2.41347,-1.19656 5.06947,-2.65903 2.65601,-1.46247 4.96344,-2.62333 5.12762,-2.57969 0.16419,0.0436 1.45938,0.72533 2.87821,1.51486 l 2.57968,1.43551 0.005,5.84053 0.005,5.84053 5.01756,2.91042 5.01755,2.91041 -0.0619,3.3038 -0.0619,3.3038 -4.96094,2.74557 -4.96094,2.74556 v 5.91971 5.91972 l -0.99218,0.61814 c -0.54571,0.33997 -1.70657,1.00682 -2.57969,1.48187 l -1.5875,0.86374 -5.13845,-2.94375 -5.13846,-2.94375 -5.07495,2.9204 c -2.79121,1.60622 -5.12235,2.91873 -5.18029,2.91669 -0.0579,-0.002 -1.29598,-0.64414 -2.75119,-1.42688 z m 2.51354,-5.0517 c 0,-3.20243 0.10427,-5.68854 0.23857,-5.68854 0.13122,0 2.22331,1.13809 4.64911,2.52909 2.4258,1.39101 4.58512,2.59609 4.79849,2.67797 0.32752,0.12568 0.37609,-0.25116 0.31183,-2.41948 l -0.0761,-2.56835 -4.89479,-2.74741 -4.89479,-2.74742 -0.1323,-6.1017 -0.13229,-6.10171 -2.18281,-1.18561 -2.18281,-1.18562 v 5.98468 c 0,5.3754 -0.0431,5.96815 -0.42302,5.82234 -0.23266,-0.0893 -2.40555,-1.38957 -4.82865,-2.88953 -2.42309,-1.49996 -4.55445,-2.8159 -4.73635,-2.9243 -0.25554,-0.15229 -0.33073,0.39538 -0.33073,2.40893 v 2.60602 l 5.09323,2.9123 5.09323,2.9123 -0.0935,5.95445 -0.0935,5.95445 2.21016,1.2133 c 1.21558,0.66731 2.29945,1.22659 2.40859,1.24284 0.10914,0.0162 0.19844,-2.5303 0.19844,-5.659 z m 5.42396,2.91301 c 2.18282,-1.26366 4.05308,-2.37749 4.15615,-2.47518 0.14292,-0.13547 -7.71334,-4.84025 -8.83104,-5.28853 -0.12095,-0.0485 -0.2199,2.30717 -0.2199,5.23483 0,4.98775 0.0292,5.30739 0.46302,5.07474 0.25466,-0.13656 2.24896,-1.2822 4.43177,-2.54586 z m 14.84313,-7.73725 c -0.0866,-0.0866 -8.59551,4.67673 -9.10377,5.09632 -0.0448,0.037 1.97925,1.24592 4.49792,2.6865 l 4.57939,2.61924 0.0719,-5.14239 c 0.0395,-2.82831 0.0191,-5.19517 -0.0454,-5.25967 z m 4.27302,8.60224 c 0.5909,-0.28891 0.59531,-0.3349 0.59531,-6.1984 v -5.90734 l 0.99219,-0.61369 c 0.54571,-0.33753 2.86742,-1.65848 5.15938,-2.93545 l 4.16718,-2.32175 v -2.63343 c 0,-2.42673 -0.0363,-2.61384 -0.46302,-2.38384 -0.25466,0.13728 -2.41033,1.39162 -4.79038,2.78744 -2.38005,1.39581 -4.43388,2.53783 -4.56406,2.53783 -0.13204,0 -0.2367,-2.57379 -0.2367,-5.82083 0,-3.20146 -0.0791,-5.82083 -0.17575,-5.82083 -0.0967,0 -1.15896,0.55188 -2.36067,1.22641 l -2.18492,1.22642 0.0456,5.97568 0.0456,5.97569 -4.89479,2.83243 -4.89479,2.83244 -0.0761,2.56531 c -0.0652,2.19754 -0.0189,2.54335 0.32295,2.41216 0.21949,-0.0842 2.43851,-1.34853 4.93115,-2.80956 2.49265,-1.46104 4.63927,-2.59018 4.77028,-2.50922 0.13101,0.081 0.23819,2.70244 0.23819,5.8255 V 180.53 l 1.38907,-0.81509 c 0.76398,-0.4483 1.65695,-0.94607 1.98437,-1.10615 z m -11.06301,-11.35352 c 1.53713,-0.89231 3.60612,-2.09266 4.59776,-2.66745 l 1.80297,-1.04506 -4.66964,-2.75651 c -2.5683,-1.51608 -4.72117,-2.7565 -4.78415,-2.7565 -0.063,0 -2.25674,1.23585 -4.87502,2.74633 l -4.76053,2.74634 4.69899,2.67495 c 2.58444,1.47122 4.81055,2.67615 4.94691,2.67762 0.13637,0.001 1.50558,-0.7274 3.04271,-1.61972 z m -3.74835,-9.61241 c 0.25634,-0.23197 0.31909,-1.66584 0.26458,-6.04648 l -0.0714,-5.74241 -4.63021,2.8773 -4.63021,2.8773 -0.0713,5.71609 -0.0713,5.71609 4.43691,-2.54691 c 2.4403,-1.4008 4.58812,-2.68374 4.77294,-2.85098 z m 10.31871,-0.45842 -0.0714,-5.6078 -4.63021,-2.83019 -4.63021,-2.83019 -0.0716,5.57886 c -0.0593,4.6259 -0.005,5.64535 0.31765,5.96808 0.43152,0.43151 8.63008,5.30152 8.95344,5.31841 0.11203,0.006 0.17156,-2.51287 0.13229,-5.59717 z m -25.17519,-7.54563 c -0.0615,-0.0615 -2.22828,1.01893 -4.81502,2.40099 l -4.70316,2.51285 0.90681,0.54056 c 0.49875,0.29732 2.63322,1.60812 4.74327,2.91291 l 3.83646,2.37233 0.0718,-5.31389 c 0.0395,-2.92264 0.0214,-5.36422 -0.0401,-5.42575 z m 35.9517,7.73207 c 2.18281,-1.26365 4.0558,-2.38021 4.16219,-2.48123 0.1064,-0.10102 -1.38188,-1.10355 -3.30729,-2.22784 -1.9254,-1.12429 -4.00675,-2.34772 -4.62522,-2.71874 l -1.12448,-0.67457 v 5.44827 c 0,5.10702 0.029,5.43271 0.46303,5.19997 0.25466,-0.13656 2.24895,-1.2822 4.43177,-2.54586 z m -26.09466,-8.97032 c 2.45349,-1.51252 4.7205,-2.88897 5.03779,-3.05878 0.51279,-0.27443 1.13788,0.0315 5.62509,2.75307 l 5.04819,3.06181 2.24543,-1.22398 2.24543,-1.22399 -3.00676,-1.763 c -1.65372,-0.96965 -3.81184,-2.23172 -4.79582,-2.8046 -0.98398,-0.57288 -1.74956,-1.16008 -1.70129,-1.30489 0.0483,-0.14481 1.03194,-0.81636 2.18593,-1.49233 1.15399,-0.67597 3.26902,-1.91397 4.70006,-2.75112 l 2.6019,-1.52209 -2.27851,-1.30196 -2.2785,-1.30196 -5.04025,2.80873 -5.04025,2.80873 -2.95606,-1.71395 c -1.62583,-0.94268 -3.86028,-2.24977 -4.96544,-2.90465 l -2.00938,-1.1907 -2.1535,1.2543 c -1.18443,0.68986 -2.07206,1.33574 -1.97252,1.43528 0.0995,0.0996 2.36198,1.39081 5.02764,2.86948 2.66566,1.47867 4.80527,2.81266 4.75468,2.96442 -0.0506,0.15176 -2.25269,1.53472 -4.89355,3.07324 -2.64087,1.53852 -4.86783,2.86357 -4.94881,2.94454 -0.11012,0.11013 3.65801,2.28001 4.03955,2.32618 0.0374,0.005 2.07546,-1.22927 4.52895,-2.74178 z m -1.20584,-4.5924 1.80368,-1.0462 -4.67732,-2.58681 c -3.68436,-2.03766 -4.72638,-2.50933 -4.90847,-2.22184 -0.12714,0.20074 -0.23299,2.65262 -0.23522,5.44863 l -0.004,5.08365 3.10885,-1.81561 c 1.70987,-0.99859 3.92051,-2.2864 4.91253,-2.86182 z m 21.6805,-0.52893 c -0.0518,-2.583 -0.11815,-4.90439 -0.14749,-5.15865 -0.0453,-0.39241 -0.31329,-0.3077 -1.77314,0.56042 -0.94588,0.56249 -2.94823,1.73732 -4.44965,2.61073 l -2.72986,1.58802 4.31736,2.52644 c 2.37455,1.38953 4.44326,2.5361 4.59714,2.54791 0.19021,0.0146 0.24965,-1.48209 0.18564,-4.67487 z"
       id="path3" /></g></svg>
